<mxfile host="app.diagrams.net" modified="2023-09-05T17:46:47.034Z" agent="Mozilla/5.0 (Windows NT 10.0; Win64; x64) AppleWebKit/537.36 (KHTML, like Gecko) Chrome/116.0.0.0 Safari/537.36" etag="mZgZDcj_5IPcWDBaYUk9" version="21.7.2" type="google">
  <diagram id="C5RBs43oDa-KdzZeNtuy" name="Page-1">
    <mxGraphModel grid="1" page="1" gridSize="10" guides="1" tooltips="1" connect="1" arrows="1" fold="1" pageScale="1" pageWidth="827" pageHeight="1169" math="0" shadow="0">
      <root>
        <mxCell id="WIyWlLk6GJQsqaUBKTNV-0" />
        <mxCell id="WIyWlLk6GJQsqaUBKTNV-1" parent="WIyWlLk6GJQsqaUBKTNV-0" />
        <mxCell id="W--h6cJJO9SNs1YP63ZQ-0" value="Из имеющегося массива строк сформировать новый массив из строк, длина которых меньше, либо равна 3 символам." style="text;strokeColor=none;align=center;fillColor=none;html=1;verticalAlign=middle;whiteSpace=wrap;rounded=0;fontSize=16;fontStyle=2" vertex="1" parent="WIyWlLk6GJQsqaUBKTNV-1">
          <mxGeometry x="229.5" y="-1130" width="367" height="70" as="geometry" />
        </mxCell>
        <mxCell id="W--h6cJJO9SNs1YP63ZQ-4" value="" style="edgeStyle=orthogonalEdgeStyle;rounded=0;orthogonalLoop=1;jettySize=auto;html=1;" edge="1" parent="WIyWlLk6GJQsqaUBKTNV-1" source="W--h6cJJO9SNs1YP63ZQ-1" target="W--h6cJJO9SNs1YP63ZQ-2">
          <mxGeometry relative="1" as="geometry" />
        </mxCell>
        <mxCell id="W--h6cJJO9SNs1YP63ZQ-1" value="Start" style="ellipse;whiteSpace=wrap;html=1;fontStyle=1;fontSize=19;strokeWidth=2;" vertex="1" parent="WIyWlLk6GJQsqaUBKTNV-1">
          <mxGeometry x="353" y="-1050" width="120" height="50" as="geometry" />
        </mxCell>
        <mxCell id="W--h6cJJO9SNs1YP63ZQ-5" value="" style="edgeStyle=orthogonalEdgeStyle;rounded=0;orthogonalLoop=1;jettySize=auto;html=1;" edge="1" parent="WIyWlLk6GJQsqaUBKTNV-1" source="W--h6cJJO9SNs1YP63ZQ-2" target="W--h6cJJO9SNs1YP63ZQ-3">
          <mxGeometry relative="1" as="geometry" />
        </mxCell>
        <mxCell id="W--h6cJJO9SNs1YP63ZQ-2" value="Input&lt;br style=&quot;font-size: 12px;&quot;&gt;User Strings" style="shape=parallelogram;perimeter=parallelogramPerimeter;whiteSpace=wrap;html=1;fixedSize=1;fontSize=12;" vertex="1" parent="WIyWlLk6GJQsqaUBKTNV-1">
          <mxGeometry x="353" y="-958" width="120" height="60" as="geometry" />
        </mxCell>
        <mxCell id="W--h6cJJO9SNs1YP63ZQ-7" value="" style="edgeStyle=orthogonalEdgeStyle;rounded=0;orthogonalLoop=1;jettySize=auto;html=1;" edge="1" parent="WIyWlLk6GJQsqaUBKTNV-1" source="W--h6cJJO9SNs1YP63ZQ-3" target="W--h6cJJO9SNs1YP63ZQ-6">
          <mxGeometry relative="1" as="geometry" />
        </mxCell>
        <mxCell id="W--h6cJJO9SNs1YP63ZQ-3" value="Split strings to string array1" style="rounded=1;whiteSpace=wrap;html=1;fontSize=12;" vertex="1" parent="WIyWlLk6GJQsqaUBKTNV-1">
          <mxGeometry x="353" y="-855" width="120" height="60" as="geometry" />
        </mxCell>
        <mxCell id="W--h6cJJO9SNs1YP63ZQ-11" value="" style="edgeStyle=orthogonalEdgeStyle;rounded=0;orthogonalLoop=1;jettySize=auto;html=1;" edge="1" parent="WIyWlLk6GJQsqaUBKTNV-1" source="W--h6cJJO9SNs1YP63ZQ-6" target="W--h6cJJO9SNs1YP63ZQ-10">
          <mxGeometry relative="1" as="geometry" />
        </mxCell>
        <mxCell id="W--h6cJJO9SNs1YP63ZQ-6" value="N = array1.Length&lt;br&gt;x [ i ] = array1[ i ].Length" style="rounded=1;whiteSpace=wrap;html=1;fontSize=12;" vertex="1" parent="WIyWlLk6GJQsqaUBKTNV-1">
          <mxGeometry x="338" y="-751" width="150" height="60" as="geometry" />
        </mxCell>
        <mxCell id="W--h6cJJO9SNs1YP63ZQ-14" value="" style="edgeStyle=orthogonalEdgeStyle;rounded=0;orthogonalLoop=1;jettySize=auto;html=1;" edge="1" parent="WIyWlLk6GJQsqaUBKTNV-1" source="W--h6cJJO9SNs1YP63ZQ-8" target="W--h6cJJO9SNs1YP63ZQ-13">
          <mxGeometry relative="1" as="geometry" />
        </mxCell>
        <mxCell id="W--h6cJJO9SNs1YP63ZQ-25" value="" style="edgeStyle=orthogonalEdgeStyle;rounded=0;orthogonalLoop=1;jettySize=auto;html=1;entryX=0;entryY=0.5;entryDx=0;entryDy=0;" edge="1" parent="WIyWlLk6GJQsqaUBKTNV-1" source="W--h6cJJO9SNs1YP63ZQ-8" target="W--h6cJJO9SNs1YP63ZQ-23">
          <mxGeometry relative="1" as="geometry">
            <mxPoint x="555" y="-523.0000000000002" as="targetPoint" />
          </mxGeometry>
        </mxCell>
        <mxCell id="W--h6cJJO9SNs1YP63ZQ-8" value="i = 0, N - 1, 1" style="shape=hexagon;perimeter=hexagonPerimeter2;whiteSpace=wrap;html=1;fixedSize=1;" vertex="1" parent="WIyWlLk6GJQsqaUBKTNV-1">
          <mxGeometry x="351" y="-548" width="124" height="50" as="geometry" />
        </mxCell>
        <mxCell id="W--h6cJJO9SNs1YP63ZQ-12" value="" style="edgeStyle=orthogonalEdgeStyle;rounded=0;orthogonalLoop=1;jettySize=auto;html=1;exitX=0.5;exitY=1;exitDx=0;exitDy=0;" edge="1" parent="WIyWlLk6GJQsqaUBKTNV-1" source="W--h6cJJO9SNs1YP63ZQ-10" target="W--h6cJJO9SNs1YP63ZQ-8">
          <mxGeometry relative="1" as="geometry">
            <mxPoint x="413.0588235294117" y="-597" as="sourcePoint" />
          </mxGeometry>
        </mxCell>
        <mxCell id="W--h6cJJO9SNs1YP63ZQ-10" value="string array2 = Array.Empty&amp;lt;string&amp;gt;()&lt;br style=&quot;border-color: var(--border-color); font-size: 12px;&quot;&gt;&lt;span style=&quot;font-size: 12px;&quot;&gt;j = 0&lt;/span&gt;" style="shape=parallelogram;perimeter=parallelogramPerimeter;whiteSpace=wrap;html=1;fixedSize=1;fontSize=12;" vertex="1" parent="WIyWlLk6GJQsqaUBKTNV-1">
          <mxGeometry x="293" y="-649" width="240" height="60" as="geometry" />
        </mxCell>
        <mxCell id="W--h6cJJO9SNs1YP63ZQ-17" value="NO" style="edgeStyle=orthogonalEdgeStyle;rounded=0;orthogonalLoop=1;jettySize=auto;html=1;entryX=0;entryY=0.5;entryDx=0;entryDy=0;fontSize=14;fontStyle=1;exitX=0;exitY=0.5;exitDx=0;exitDy=0;" edge="1" parent="WIyWlLk6GJQsqaUBKTNV-1" source="W--h6cJJO9SNs1YP63ZQ-13" target="W--h6cJJO9SNs1YP63ZQ-8">
          <mxGeometry x="-0.7245" relative="1" as="geometry">
            <mxPoint x="294" y="-418" as="targetPoint" />
            <mxPoint x="374.0588235294115" y="-418.05882352941194" as="sourcePoint" />
            <Array as="points">
              <mxPoint x="320" y="-418" />
              <mxPoint x="320" y="-523" />
            </Array>
            <mxPoint x="1" as="offset" />
          </mxGeometry>
        </mxCell>
        <mxCell id="W--h6cJJO9SNs1YP63ZQ-18" value="YES" style="edgeStyle=orthogonalEdgeStyle;rounded=0;orthogonalLoop=1;jettySize=auto;html=1;entryX=1;entryY=0.5;entryDx=0;entryDy=0;exitX=0.5;exitY=1;exitDx=0;exitDy=0;fontSize=14;fontStyle=1" edge="1" parent="WIyWlLk6GJQsqaUBKTNV-1" source="W--h6cJJO9SNs1YP63ZQ-13" target="W--h6cJJO9SNs1YP63ZQ-20">
          <mxGeometry x="-0.8122" relative="1" as="geometry">
            <mxPoint x="413" y="-298" as="targetPoint" />
            <mxPoint as="offset" />
          </mxGeometry>
        </mxCell>
        <mxCell id="W--h6cJJO9SNs1YP63ZQ-13" value="x [ i ] &amp;lt;= 3" style="rhombus;whiteSpace=wrap;html=1;" vertex="1" parent="WIyWlLk6GJQsqaUBKTNV-1">
          <mxGeometry x="373" y="-458" width="80" height="80" as="geometry" />
        </mxCell>
        <mxCell id="W--h6cJJO9SNs1YP63ZQ-22" value="" style="edgeStyle=orthogonalEdgeStyle;rounded=0;orthogonalLoop=1;jettySize=auto;html=1;entryX=0;entryY=0.5;entryDx=0;entryDy=0;exitX=0.5;exitY=0;exitDx=0;exitDy=0;" edge="1" parent="WIyWlLk6GJQsqaUBKTNV-1" source="W--h6cJJO9SNs1YP63ZQ-20" target="W--h6cJJO9SNs1YP63ZQ-8">
          <mxGeometry relative="1" as="geometry">
            <mxPoint x="205" y="-408" as="targetPoint" />
          </mxGeometry>
        </mxCell>
        <mxCell id="W--h6cJJO9SNs1YP63ZQ-20" value="array2.Resize ( j + 1 )&lt;br&gt;array2 [ j ] = array1 [ i ]&lt;br&gt;j ++" style="rounded=1;whiteSpace=wrap;html=1;fontSize=12;" vertex="1" parent="WIyWlLk6GJQsqaUBKTNV-1">
          <mxGeometry x="150" y="-378" width="150" height="60" as="geometry" />
        </mxCell>
        <mxCell id="W--h6cJJO9SNs1YP63ZQ-27" value="" style="edgeStyle=orthogonalEdgeStyle;rounded=0;orthogonalLoop=1;jettySize=auto;html=1;exitX=0.383;exitY=0.688;exitDx=0;exitDy=0;exitPerimeter=0;" edge="1" parent="WIyWlLk6GJQsqaUBKTNV-1" source="W--h6cJJO9SNs1YP63ZQ-23" target="W--h6cJJO9SNs1YP63ZQ-26">
          <mxGeometry relative="1" as="geometry" />
        </mxCell>
        <mxCell id="W--h6cJJO9SNs1YP63ZQ-23" value="Output&lt;br style=&quot;font-size: 16px;&quot;&gt;array2" style="shape=document;whiteSpace=wrap;html=1;boundedLbl=1;fontSize=16;fontStyle=0;strokeWidth=2;" vertex="1" parent="WIyWlLk6GJQsqaUBKTNV-1">
          <mxGeometry x="564" y="-563" width="120" height="80" as="geometry" />
        </mxCell>
        <mxCell id="W--h6cJJO9SNs1YP63ZQ-26" value="Finish" style="rounded=1;whiteSpace=wrap;html=1;arcSize=50;fontStyle=1;fontSize=19;strokeWidth=2;" vertex="1" parent="WIyWlLk6GJQsqaUBKTNV-1">
          <mxGeometry x="555" y="-410" width="110" height="50" as="geometry" />
        </mxCell>
      </root>
    </mxGraphModel>
  </diagram>
</mxfile>
